<svg xmlns="http://www.w3.org/2000/svg" viewBox="0 0 1600 900" width="100%" height="100%" role="img">
  <defs>
    <linearGradient id="bg" x1="0%" y1="0%" x2="100%" y2="100%">
      <stop offset="0%" stop-color="#0F172A"/>
      <stop offset="100%" stop-color="#1E293B"/>
    </linearGradient>
    <linearGradient id="gold" x1="0%" y1="0%" x2="100%" y2="0%">
      <stop offset="0%" stop-color="#C5A059"/>
      <stop offset="100%" stop-color="#E5C378"/>
    </linearGradient>
    <linearGradient id="accent" x1="0%" y1="0%" x2="100%" y2="100%">
      <stop offset="0%" stop-color="#FBBF24"/>
      <stop offset="100%" stop-color="#FBBF24" stop-opacity="0.35"/>
    </linearGradient>
    <radialGradient id="glow" cx="50%" cy="50%" r="50%">
      <stop offset="0%" stop-color="#FBBF24" stop-opacity="0.30"/>
      <stop offset="100%" stop-color="#FBBF24" stop-opacity="0"/>
    </radialGradient>
  </defs>

  <rect width="1600" height="900" rx="16" fill="url(#bg)"/>
  <rect x="2" y="2" width="1596" height="896" rx="14" fill="none" stroke="#334155" stroke-width="2"/>

  <circle cx="1210" cy="450" r="330" fill="url(#glow)"/>
  <line x1="1210" y1="450" x2="1730.0" y2="450.0" stroke="#FBBF24" stroke-width="1" stroke-opacity="0.05"/>
  <line x1="1210" y1="450" x2="1704.5" y2="610.7" stroke="#FBBF24" stroke-width="1" stroke-opacity="0.05"/>
  <line x1="1210" y1="450" x2="1630.7" y2="755.6" stroke="#FBBF24" stroke-width="1" stroke-opacity="0.05"/>
  <line x1="1210" y1="450" x2="1515.6" y2="870.7" stroke="#FBBF24" stroke-width="1" stroke-opacity="0.05"/>
  <line x1="1210" y1="450" x2="1370.7" y2="944.5" stroke="#FBBF24" stroke-width="1" stroke-opacity="0.05"/>
  <line x1="1210" y1="450" x2="1210.0" y2="970.0" stroke="#FBBF24" stroke-width="1" stroke-opacity="0.05"/>
  <line x1="1210" y1="450" x2="1049.3" y2="944.5" stroke="#FBBF24" stroke-width="1" stroke-opacity="0.05"/>
  <line x1="1210" y1="450" x2="904.4" y2="870.7" stroke="#FBBF24" stroke-width="1" stroke-opacity="0.05"/>
  <line x1="1210" y1="450" x2="789.3" y2="755.6" stroke="#FBBF24" stroke-width="1" stroke-opacity="0.05"/>
  <line x1="1210" y1="450" x2="715.5" y2="610.7" stroke="#FBBF24" stroke-width="1" stroke-opacity="0.05"/>
  <line x1="1210" y1="450" x2="690.0" y2="450.0" stroke="#FBBF24" stroke-width="1" stroke-opacity="0.05"/>
  <line x1="1210" y1="450" x2="715.5" y2="289.3" stroke="#FBBF24" stroke-width="1" stroke-opacity="0.05"/>
  <line x1="1210" y1="450" x2="789.3" y2="144.4" stroke="#FBBF24" stroke-width="1" stroke-opacity="0.05"/>
  <line x1="1210" y1="450" x2="904.4" y2="29.3" stroke="#FBBF24" stroke-width="1" stroke-opacity="0.05"/>
  <line x1="1210" y1="450" x2="1049.3" y2="-44.5" stroke="#FBBF24" stroke-width="1" stroke-opacity="0.05"/>
  <line x1="1210" y1="450" x2="1210.0" y2="-70.0" stroke="#FBBF24" stroke-width="1" stroke-opacity="0.05"/>
  <line x1="1210" y1="450" x2="1370.7" y2="-44.5" stroke="#FBBF24" stroke-width="1" stroke-opacity="0.05"/>
  <line x1="1210" y1="450" x2="1515.6" y2="29.3" stroke="#FBBF24" stroke-width="1" stroke-opacity="0.05"/>
  <line x1="1210" y1="450" x2="1630.7" y2="144.4" stroke="#FBBF24" stroke-width="1" stroke-opacity="0.05"/>
  <line x1="1210" y1="450" x2="1704.5" y2="289.3" stroke="#FBBF24" stroke-width="1" stroke-opacity="0.05"/>
  <rect x="96" y="120" width="64" height="4" rx="2" fill="url(#gold)"/>
  <text x="96" y="168" fill="#E5C378" font-family="system-ui, sans-serif" font-size="17" font-weight="700" letter-spacing="2.6">MASTERCLASS C9 — COMPRESSED TIME</text>
  <text x="96" y="246" fill="#FFFFFF" font-family="system-ui, sans-serif" font-size="60" font-weight="800">Selling High-Ticket in</text>
  <text x="96" y="314" fill="#FFFFFF" font-family="system-ui, sans-serif" font-size="60" font-weight="800">Compressed Time</text>
  <text x="96" y="386" fill="#94A3B8" font-family="system-ui, sans-serif" font-size="22" font-weight="400">Trunk shows, cruise ports and pop-ups: one</text>
  <text x="96" y="418" fill="#94A3B8" font-family="system-ui, sans-serif" font-size="22" font-weight="400">window, no second visit.</text>
  <rect x="96" y="472" width="193" height="38" rx="19" fill="#FBBF24" fill-opacity="0.14" stroke="#FBBF24" stroke-width="1.6"/>
  <text x="192.7" y="497" fill="#FBBF24" font-family="system-ui, sans-serif" font-size="14" font-weight="700" text-anchor="middle" letter-spacing="0.8">3-HOUR TRUNK SHOW</text>
  <rect x="303" y="472" width="214" height="38" rx="19" fill="#FBBF24" fill-opacity="0.14" stroke="#FBBF24" stroke-width="1.6"/>
  <text x="410.29999999999995" y="497" fill="#FBBF24" font-family="system-ui, sans-serif" font-size="14" font-weight="700" text-anchor="middle" letter-spacing="0.8">CRUISE-PORT CLOSING</text>
  <rect x="531" y="472" width="112" height="38" rx="19" fill="#FBBF24" fill-opacity="0.14" stroke="#FBBF24" stroke-width="1.6"/>
  <text x="587.0999999999999" y="497" fill="#FBBF24" font-family="system-ui, sans-serif" font-size="14" font-weight="700" text-anchor="middle" letter-spacing="0.8">8 MODULES</text>
  <circle cx="103" cy="541" r="4.5" fill="#FBBF24"/>
  <text x="120" y="546" fill="#E2E8F0" font-family="system-ui, sans-serif" font-size="17" font-weight="500">Compressed discovery</text>
  <circle cx="403" cy="541" r="4.5" fill="#FBBF24"/>
  <text x="420" y="546" fill="#E2E8F0" font-family="system-ui, sans-serif" font-size="17" font-weight="500">Fast trust, no history</text>
  <circle cx="103" cy="583" r="4.5" fill="#FBBF24"/>
  <text x="120" y="588" fill="#E2E8F0" font-family="system-ui, sans-serif" font-size="17" font-weight="500">The decision moment</text>
  <circle cx="403" cy="583" r="4.5" fill="#FBBF24"/>
  <text x="420" y="588" fill="#E2E8F0" font-family="system-ui, sans-serif" font-size="17" font-weight="500">Fast, honest follow-up</text>
  <rect x="96" y="660" width="3" height="40" rx="1.5" fill="url(#gold)"/>
  <text x="116" y="678" fill="#E5C378" font-family="system-ui, sans-serif" font-size="14" font-weight="700" letter-spacing="1.8">JEWELSWELL MASTER ACADEMY</text>
  <text x="116" y="698" fill="#64748B" font-family="system-ui, sans-serif" font-size="13" font-weight="400">Fine Jewelry Retail Curriculum</text>
  <g>
    <circle cx="1210" cy="450" r="235.0" fill="url(#accent)" fill-opacity="0.12" stroke="#FBBF24" stroke-width="2.8"/>
    <line x1="1410.0" y1="450.0" x2="1445.0" y2="450.0" stroke="#FBBF24" stroke-width="2.4" stroke-opacity="0.8"/><line x1="1383.2" y1="550.0" x2="1413.5" y2="567.5" stroke="#FBBF24" stroke-width="2.4" stroke-opacity="0.8"/><line x1="1310.0" y1="623.2" x2="1327.5" y2="653.5" stroke="#FBBF24" stroke-width="2.4" stroke-opacity="0.8"/><line x1="1210.0" y1="650.0" x2="1210.0" y2="685.0" stroke="#FBBF24" stroke-width="2.4" stroke-opacity="0.8"/><line x1="1110.0" y1="623.2" x2="1092.5" y2="653.5" stroke="#FBBF24" stroke-width="2.4" stroke-opacity="0.8"/><line x1="1036.8" y1="550.0" x2="1006.5" y2="567.5" stroke="#FBBF24" stroke-width="2.4" stroke-opacity="0.8"/><line x1="1010.0" y1="450.0" x2="975.0" y2="450.0" stroke="#FBBF24" stroke-width="2.4" stroke-opacity="0.8"/><line x1="1036.8" y1="350.0" x2="1006.5" y2="332.5" stroke="#FBBF24" stroke-width="2.4" stroke-opacity="0.8"/><line x1="1110.0" y1="276.8" x2="1092.5" y2="246.5" stroke="#FBBF24" stroke-width="2.4" stroke-opacity="0.8"/><line x1="1210.0" y1="250.0" x2="1210.0" y2="215.0" stroke="#FBBF24" stroke-width="2.4" stroke-opacity="0.8"/><line x1="1310.0" y1="276.8" x2="1327.5" y2="246.5" stroke="#FBBF24" stroke-width="2.4" stroke-opacity="0.8"/><line x1="1383.2" y1="350.0" x2="1413.5" y2="332.5" stroke="#FBBF24" stroke-width="2.4" stroke-opacity="0.8"/>
    <rect x="1197" y="155.0" width="26" height="16" rx="5" fill="#FBBF24"/>
    <path d="M 1210 450 L 1340.0 345.0" stroke="#FBBF24" stroke-width="4" stroke-linecap="round"/>
    <path d="M 1210 450 L 1210.0 285.0" stroke="#FFFFFF" stroke-width="3" stroke-linecap="round"/>
    <circle cx="1210" cy="450" r="7" fill="#FFFFFF"/>
    <path d="M 1135.0 580.0 l 60.0 0 l -25.0 50.0"
          fill="none" stroke="#FBBF24" stroke-width="2"/>
  </g>
  <rect x="1396" y="96" width="108" height="46" rx="10" fill="#FBBF24" fill-opacity="0.16" stroke="#FBBF24" stroke-width="1.8"/>
  <text x="1450" y="127" fill="#FBBF24" font-family="system-ui, sans-serif" font-size="24" font-weight="800" text-anchor="middle" letter-spacing="1.2">C9</text>
</svg>
